<?xml version="1.0" encoding="UTF-8"?>
<svg width="113px" height="32px" viewBox="0 0 113 32" version="1.1" xmlns="http://www.w3.org/2000/svg" xmlns:xlink="http://www.w3.org/1999/xlink">
    <!-- Generator: Sketch 46.2 (44496) - http://www.bohemiancoding.com/sketch -->
    <title>logoIb</title>
    <desc>Created with Sketch.</desc>
    <defs></defs>
    <g id="Symbols" stroke="none" stroke-width="1" fill="none" fill-rule="evenodd">
        <g id="header-/-desktop" transform="translate(-68.000000, -25.000000)" fill="#FFFFFF">
            <g id="logoIb" transform="translate(68.000000, 25.000000)">
                <path d="M27.7145366,22.5613097 C27.7145366,23.5907282 27.5569878,24.5200504 27.2418856,25.3493042 C26.9267833,26.178558 26.5114275,26.9077185 25.9958056,27.5368076 C25.4801838,28.1658967 24.9072792,28.7020442 24.2770747,29.145266 C23.6468702,29.5884879 23.0166751,29.9244736 22.3864706,30.1532333 C21.2979356,30.5535627 20.0805133,30.7966162 18.7341674,30.8824011 C17.3878214,30.968186 16.0844635,31.0110778 14.8240545,31.0110778 L0,31.0110778 L0,30.5821555 C0.716141477,30.4677757 1.39646568,30.2819112 2.040993,30.0245566 C2.68552033,29.767202 3.20829577,29.4097704 3.609335,28.952251 C3.75256329,28.7806813 3.86714421,28.5304791 3.95308119,28.2016371 C4.03901817,27.8727951 4.11779255,27.4939176 4.18940669,27.0649932 C4.26102084,26.6360688 4.31114999,26.185705 4.33979565,25.7138881 C4.36844131,25.2420713 4.38276393,24.7774102 4.38276393,24.3198909 C4.38276393,23.9195614 4.38992523,23.3762654 4.40424806,22.6899864 C4.41857089,22.0037073 4.43289351,21.2531009 4.44721634,20.4381446 C4.46153917,19.6231883 4.46870047,18.7867983 4.46870047,17.9289495 L4.46870047,11.2806548 C4.46870047,10.6515657 4.46153917,10.0081888 4.44721634,9.35050477 C4.43289351,8.69282072 4.4257322,7.93506568 4.4257322,7.07721692 C4.4257322,6.56250766 4.41140958,6.04065749 4.38276393,5.51165075 C4.35411827,4.98264401 4.30398912,4.47509111 4.23237497,3.98897681 C4.16076082,3.50286251 4.07482513,3.06679593 3.97456532,2.68076398 C3.87430552,2.29473204 3.73824068,2.01593537 3.56636672,1.84436562 C3.13668184,1.38684628 2.7070034,1.07945508 2.27731851,0.92218281 C1.84763362,0.764910537 1.24608381,0.643383785 0.472651012,0.557598909 L0.472651012,0.128676671 L14.9529593,0.128676671 C16.0414943,0.128676671 17.0798839,0.193014363 18.0681591,0.321691678 C19.0564344,0.450368993 20.0088882,0.686273864 20.9255493,1.02941337 C22.3864779,1.57271759 23.5895776,2.40195895 24.5348843,3.51716235 C25.4801911,4.63236574 25.9528374,6.04779497 25.9528374,7.7634925 C25.9528374,9.65075978 25.3441262,11.1734185 24.1266857,12.3315143 C22.9092452,13.4896102 21.3265963,14.2688111 19.3786915,14.6691405 L19.3786915,14.8407094 C20.4099352,14.9550892 21.4268408,15.2052914 22.4294389,15.5913233 C23.432037,15.9773553 24.3272004,16.4992054 25.114956,17.1568895 C25.9027116,17.8145735 26.5329067,18.5937745 27.0055601,19.4945157 C27.4782134,20.3952569 27.7145366,21.4175113 27.7145366,22.5613097 Z M21.0114859,7.7634925 C21.0114859,6.33374456 20.6462592,5.06128798 19.9157949,3.94608458 C19.1853306,2.83088119 18.2758446,2.03023435 17.1873095,1.54412005 C15.8982549,0.972220879 14.2511542,0.68627558 12.245958,0.68627558 C11.6443992,0.68627558 11.1001398,0.71487011 10.6131636,0.772060027 C10.1261874,0.829249945 9.75379944,0.90073627 9.49598851,0.986521146 C9.46734285,1.1580909 9.43869762,1.31536081 9.41005196,1.45833561 C9.3814063,1.6013104 9.35992238,1.78002621 9.34559955,1.9944884 C9.33127672,2.20895059 9.3169541,2.47345 9.30263127,2.78799454 C9.28830844,3.10253909 9.26682452,3.51715977 9.23817886,4.03186903 C9.2095332,5.03269259 9.18804928,6.13358199 9.17372645,7.33457026 C9.15940362,8.53555853 9.15224232,9.67933972 9.15224232,10.7659482 L9.15224232,14.8836016 L11.5584656,14.8836016 C12.2173158,14.8836016 12.7472525,14.8693044 13.1482918,14.8407094 C15.7264011,14.6977346 17.681438,13.9685741 19.0134611,12.653206 C20.3454843,11.3378379 21.0114859,9.70794969 21.0114859,7.7634925 Z M22.6872486,23.0331241 C22.6872486,22.2038703 22.5511837,21.4246694 22.27905,20.695498 C22.0069162,19.9663265 21.6345282,19.2943551 21.1618748,18.6795634 C20.6892215,18.0647718 20.1306395,17.535773 19.4861122,17.0925512 C18.8415848,16.6493293 18.1326154,16.2990463 17.3591826,16.0416917 C16.7289781,15.841527 16.1059444,15.7057029 15.4900627,15.6342156 C14.874181,15.5627282 14.150889,15.526985 13.3201649,15.526985 L9.15224232,15.526985 L9.15224232,20.888513 C9.15224232,21.6891718 9.15940362,22.425481 9.17372645,23.0974625 C9.18804928,23.769444 9.19521059,24.3484832 9.19521059,24.8345975 C9.22385625,25.921206 9.2739854,26.814785 9.34559955,27.5153615 C9.41721369,28.215938 9.62489161,28.7949772 9.96863952,29.2524966 C10.2264504,29.5670411 10.613161,29.8315405 11.1287829,30.0460027 C11.6444048,30.2604649 12.3891807,30.3676944 13.3631331,30.3676944 C14.1938573,30.3676944 15.096182,30.3105053 16.0701344,30.1961255 C17.0440868,30.0817457 17.9893794,29.7815031 18.9060405,29.2953888 C20.1091581,28.6662997 21.0401281,27.8299097 21.6989783,26.7861937 C22.3578284,25.7424777 22.6872486,24.491467 22.6872486,23.0331241 Z M42.0229718,31.0110778 L42.0229718,30.5392633 C41.4787043,30.4820734 41.006058,30.4463302 40.6050187,30.4320327 C40.2039795,30.4177353 39.8745594,30.3819921 39.6167484,30.3248022 C39.3589375,30.2676123 39.1655822,30.1675314 39.0366767,30.0245566 C38.9077713,29.8815818 38.8433195,29.6671228 38.8433195,29.3811733 L38.8433195,0 L38.5425416,0 L32.3980785,2.01593452 L32.3980785,2.27328786 C32.7418264,2.41626265 33.1715048,2.63787026 33.6871267,2.93811733 C34.2027485,3.23836439 34.5894591,3.459972 34.8472701,3.60294679 C35.0477897,3.74592159 35.1695319,3.87459697 35.2125004,3.98897681 C35.2554689,4.10335664 35.2769528,4.27492382 35.2769528,4.50368349 L35.2769528,29.1667121 C35.2769528,29.6242315 35.0621136,29.9459199 34.6324287,30.1317872 C34.2027438,30.3176544 33.3290643,30.4534784 32.011364,30.5392633 L32.011364,31.0110778 L42.0229718,31.0110778 Z M63.6360135,26.8076398 C63.6073679,27.3509441 63.4784643,27.8799429 63.249299,28.3946521 C63.0201338,28.9093614 62.7193589,29.3740225 62.3469653,29.7886494 C61.9745717,30.2032763 61.537732,30.5178161 61.0364329,30.7322783 C60.5351339,30.9467405 59.9837132,31.05397 59.3821544,31.05397 C58.408202,31.05397 57.5416838,30.7680247 56.7825738,30.1961255 C56.0234639,29.6242263 55.6439146,28.6234178 55.6439146,27.1936698 L55.557978,27.1507776 C55.3288128,27.5225121 55.0208766,27.9371328 54.6341602,28.3946521 C54.2474438,28.8521715 53.7891201,29.2810894 53.2591754,29.6814188 C52.7292307,30.0817482 52.1420035,30.4034367 51.4974762,30.6464939 C50.8529488,30.889551 50.1439794,31.0110778 49.3705466,31.0110778 C48.9122161,31.0110778 48.4467311,30.9467401 47.9740777,30.8180628 C47.5014243,30.6893854 47.0717459,30.4606292 46.6850295,30.1317872 C46.2983131,29.8029451 45.9832156,29.3811758 45.7397275,28.8664666 C45.4962394,28.3517573 45.3744972,27.7226777 45.3744972,26.9792087 C45.3744972,26.1785499 45.696756,25.4064976 46.3412833,24.6630286 C46.9858106,23.9195597 47.7807158,23.2475883 48.7260225,22.6470941 C49.6713293,22.0466 50.5092022,21.5318985 51.2396665,21.1029741 C51.9701308,20.6740497 52.6074872,20.3094694 53.1517547,20.0092224 C53.6960222,19.7089753 54.1758298,19.4516245 54.5911919,19.2371623 C55.0065539,19.0227002 55.357458,18.8296871 55.6439146,18.6581173 L55.6439146,14.2402183 C55.6439146,14.1830284 55.5937854,14.0472043 55.4935256,13.8327422 C55.3932658,13.61828 55.2213944,13.3966724 54.9779063,13.1679127 C54.7344182,12.939153 54.3978368,12.7318427 53.9681519,12.5459754 C53.538467,12.3601082 52.979885,12.267176 52.2923892,12.267176 C51.8340587,12.267176 51.3828963,12.3458109 50.9388886,12.5030832 C50.4948809,12.6603555 50.101009,12.8605172 49.7572611,13.1035744 C49.4135132,13.3466315 49.1413835,13.589685 48.9408639,13.8327422 C48.7403443,14.0757993 48.640086,14.2831096 48.640086,14.4546794 L48.640086,16.3848295 C48.640086,16.7851589 48.432408,17.1425905 48.017046,17.4571351 C47.6016839,17.7716796 47.1505216,17.9289495 46.6635454,17.9289495 C46.2052148,17.9289495 45.8113429,17.764531 45.4819178,17.4356889 C45.1524928,17.1068469 44.9877827,16.7279694 44.9877827,16.299045 C44.9877827,15.9559055 45.0737184,15.6413657 45.2455923,15.3554161 C45.4174663,15.0694665 45.6323055,14.8121157 45.8901164,14.5833561 C46.1479274,14.3545964 46.4272184,14.1544347 46.7279978,13.9828649 C47.0287772,13.8112952 47.2937456,13.6540253 47.5229108,13.5110505 C48.267698,13.0821261 49.0267966,12.6675054 49.8002294,12.267176 C50.5736621,11.8668466 51.3112768,11.5237122 52.0130955,11.2377626 C52.7149141,10.951813 53.3594318,10.7230568 53.9466678,10.551487 C54.5339038,10.3799173 55.0137114,10.2941337 55.3861049,10.2941337 C56.1308921,10.2941337 56.8327002,10.4871468 57.4915504,10.8731787 C58.1504005,11.2592107 58.6230468,11.738169 58.9095034,12.3100682 C59.024086,12.5102329 59.0956991,12.8605159 59.1243448,13.3609277 C59.1529904,13.8613395 59.167313,14.3545951 59.167313,14.8407094 C59.167313,15.8701279 59.1601517,16.7994502 59.1458289,17.628704 C59.1315061,18.4579578 59.1243448,19.2586046 59.1243448,20.0306685 C59.1243448,20.8027324 59.1171835,21.5962306 59.1028606,22.4111869 C59.0885378,23.2261432 59.0813765,24.1197223 59.0813765,25.0919509 C59.0813765,26.378724 59.303377,27.2294113 59.7473847,27.6440382 C60.1913924,28.0586651 60.6998453,28.2659754 61.2727585,28.2659754 C61.9316086,28.2659754 62.4185775,28.1301514 62.7336798,27.8584993 C63.048782,27.5868472 63.2636212,27.2365642 63.3782039,26.8076398 L63.6360135,26.8076398 Z M55.6439146,25.9497954 L55.6439146,19.3443929 C55.1282927,19.7161274 54.4837751,20.1093022 53.7103423,20.5239291 C52.9369095,20.938556 52.1849722,21.3889198 51.4545079,21.8750341 C50.7240436,22.3611484 50.0938485,22.8972958 49.5639038,23.4834925 C49.0339592,24.0696892 48.7689908,24.734512 48.7689908,25.4779809 C48.7689908,26.2214498 49.0267978,26.8934213 49.5424197,27.4939154 C50.0580416,28.0944096 50.7312045,28.3946521 51.5619286,28.3946521 C52.3067157,28.3946521 52.965556,28.3088685 53.5384692,28.1372988 C54.1113824,27.965729 54.6413191,27.6368919 55.1282953,27.1507776 C55.4720432,26.8362331 55.6439146,26.4359097 55.6439146,25.9497954 Z M83.2295464,24.8774898 L82.8858002,24.7059209 C82.1983044,25.8497192 81.3389475,26.7147038 80.3077038,27.3009004 C79.27646,27.8870971 77.8728438,28.180191 76.0968129,28.180191 C74.9796322,28.180191 73.9698879,27.9728807 73.0675496,27.5582538 C72.1652114,27.1436268 71.3989515,26.557439 70.768747,25.7996726 C70.1385425,25.0419062 69.6515736,24.1268812 69.3078257,23.0545703 C68.9640778,21.9822593 68.7922064,20.8027349 68.7922064,19.5159618 C68.7922064,18.3435685 68.9497551,17.2426791 69.2648574,16.2132606 C69.5799596,15.1838421 70.0096381,14.2831144 70.5539056,13.5110505 C71.0981731,12.7389866 71.7426908,12.1242042 72.4874779,11.6666849 C73.2322651,11.2091655 74.0486541,10.9804093 74.9366695,10.9804093 C76.1397872,10.9804093 77.020628,11.3306923 77.5792184,12.0312688 C78.1378087,12.7318452 78.4170997,13.611127 78.4170997,14.6691405 C78.4170997,15.2410397 78.3454866,15.7271467 78.2022583,16.1274761 C78.316841,16.5564005 78.5674867,16.9138321 78.9542031,17.1997817 C79.3409195,17.4857313 79.7777593,17.628704 80.2647355,17.628704 C80.8662943,17.628704 81.3890698,17.4070963 81.8330775,16.9638745 C82.2770852,16.5206526 82.4990857,15.9988025 82.4990857,15.3983083 C82.4990857,14.5690545 82.2770852,13.839894 81.8330775,13.2108049 C81.3890698,12.5817158 80.8090039,12.052717 80.0928624,11.6237926 C79.3767209,11.1948683 78.5603319,10.8660312 77.6436708,10.6372715 C76.7270097,10.4085118 75.7960397,10.2941337 74.850733,10.2941337 C73.4470957,10.2941337 72.1508991,10.580079 70.9621042,11.1519782 C69.7733094,11.7238773 68.7492424,12.4816324 67.8898726,13.425266 C67.0305029,14.3688997 66.35734,15.4626404 65.8703638,16.7065211 C65.3833876,17.9504019 65.1399031,19.2586016 65.1399031,20.6311596 C65.1399031,22.0895025 65.3762263,23.46204 65.8488796,24.7488131 C66.321533,26.0355862 66.973212,27.1579215 67.8039361,28.1158527 C68.6346602,29.0737838 69.6372432,29.8172416 70.8117153,30.3462483 C71.9861873,30.875255 73.2609,31.1397544 74.6358916,31.1397544 C75.7244267,31.1397544 76.734171,30.9824845 77.6651549,30.66794 C78.5961388,30.3533954 79.4340118,29.9030316 80.1787989,29.3168349 C80.9235861,28.7306383 81.5537811,28.0586668 82.069403,27.3009004 C82.5850248,26.543134 82.9717354,25.7353385 83.2295464,24.8774898 Z M106.905065,31.0110778 L96.506743,31.0110778 L96.506743,30.5821555 C97.0796562,30.5535606 97.5594638,30.4963715 97.9461802,30.4105866 C98.3328966,30.3248018 98.5262519,30.0817482 98.5262519,29.6814188 C98.5262519,29.5098491 98.3328966,29.1166743 97.9461802,28.5018827 C97.5594638,27.8870911 97.1011401,27.1793764 96.5711954,26.3787176 C96.0412507,25.5780588 95.4826687,24.755966 94.8954327,23.9124147 C94.3081967,23.0688634 93.7997439,22.3611488 93.370059,21.7892497 C92.9117285,21.1601606 92.4963726,20.8456207 92.1239791,20.8456207 C91.9807508,20.8456207 91.8590085,20.8527694 91.7587487,20.8670668 C91.6584889,20.8813643 91.5510693,20.9171075 91.4364867,20.9742974 L91.4364867,29.3811733 C91.4364867,29.6385279 91.5080998,29.8386896 91.6513281,29.9816644 C91.7945564,30.1246392 91.9807503,30.2318687 92.2099156,30.3033561 C92.4390809,30.3748435 92.696888,30.4248839 92.9833445,30.4534789 C93.2698011,30.4820738 93.5562534,30.5249656 93.84271,30.5821555 L93.84271,31.0110778 L85.2920235,31.0110778 L85.2920235,30.5821555 C85.9508737,30.5249656 86.5452622,30.4177361 87.0752069,30.2604638 C87.6051516,30.1031916 87.87012,29.7529086 87.87012,29.2096044 L87.87012,4.97549795 C87.87012,4.74673828 87.8557973,4.56802247 87.8271517,4.43934516 C87.798506,4.31066784 87.6839251,4.17484383 87.4834055,4.03186903 C87.2828859,3.88889424 86.9749497,3.71017843 86.5595876,3.49571623 C86.1442256,3.28125404 85.7503537,3.0739437 85.3779601,2.87377899 L85.3779601,2.61642565 L91.0927405,0 L91.4364867,0 L91.4364867,20.5024829 C92.2672108,19.8162039 93.1695355,19.037003 94.1434879,18.1648568 C95.1174403,17.2927105 96.0197651,16.4491719 96.8504892,15.6342156 C97.6812133,14.8192592 98.3686988,14.104396 98.9129663,13.4896044 C99.4572338,12.8748128 99.7293635,12.4673407 99.7293635,12.267176 C99.7293635,12.0670113 99.6147826,11.9025927 99.3856173,11.7739154 C99.1564521,11.6452381 98.8699998,11.5380086 98.5262519,11.4522237 C98.182504,11.3664389 97.810116,11.2949525 97.4090767,11.2377626 C97.0080375,11.1805727 96.6356495,11.1519782 96.2919016,11.1519782 L96.2919016,10.7230559 L106.819129,10.7230559 L106.819129,11.1519782 C106.733192,11.1519782 106.461062,11.1734241 106.002731,11.2163165 C105.544401,11.2592089 105.007303,11.3592898 104.391421,11.5165621 C103.77554,11.6738343 103.116699,11.895442 102.414881,12.1813915 C101.713062,12.4673411 101.061383,12.8676645 100.459824,13.3823738 C99.5431631,14.1544377 98.6408384,14.9479359 97.7528229,15.7628922 C96.8648075,16.5778485 96.0340958,17.3427522 95.2606631,18.0576262 C96.5210721,19.9734884 97.7098491,21.7677952 98.8270298,23.4406003 C99.9442105,25.1134054 100.918148,26.4930914 101.748872,27.5796999 C102.75147,28.895068 103.596505,29.8100929 104.284001,30.3248022 C104.513166,30.3819921 104.871231,30.4391812 105.358207,30.4963711 C105.845184,30.553561 106.360798,30.5821555 106.905065,30.5821555 L106.905065,31.0110778 Z M110.965567,31.44 C109.980742,31.44 109.182384,30.6430546 109.182384,29.6599727 C109.182384,28.6768908 109.980742,27.8799454 110.965567,27.8799454 C111.950392,27.8799454 112.74875,28.6768908 112.74875,29.6599727 C112.74875,30.6430546 111.950392,31.44 110.965567,31.44 Z" id="Black-Copy-6"></path>
            </g>
        </g>
    </g>
</svg>